<mxfile host="app.diagrams.net" modified="2023-03-01T08:13:39.489Z" agent="5.0 (Windows)" etag="w7i0lx5WgXLQ8cwYi6kJ" version="20.8.23" type="github">
  <diagram name="第 1 页" id="avwRosOW1kTsVmRYV9mG">
    <mxGraphModel dx="1008" dy="525" grid="1" gridSize="10" guides="1" tooltips="1" connect="1" arrows="1" fold="1" page="1" pageScale="1" pageWidth="827" pageHeight="1169" math="0" shadow="0">
      <root>
        <mxCell id="0" />
        <mxCell id="1" parent="0" />
        <mxCell id="VmrAAsjJuFen-UYQ8yC_-11" style="edgeStyle=orthogonalEdgeStyle;rounded=0;orthogonalLoop=1;jettySize=auto;html=1;exitX=1;exitY=0.5;exitDx=0;exitDy=0;entryX=0;entryY=0.5;entryDx=0;entryDy=0;" edge="1" parent="1" source="VmrAAsjJuFen-UYQ8yC_-1" target="VmrAAsjJuFen-UYQ8yC_-10">
          <mxGeometry relative="1" as="geometry" />
        </mxCell>
        <mxCell id="VmrAAsjJuFen-UYQ8yC_-12" value="ver_en使能" style="edgeLabel;html=1;align=center;verticalAlign=middle;resizable=0;points=[];" vertex="1" connectable="0" parent="VmrAAsjJuFen-UYQ8yC_-11">
          <mxGeometry x="0.2655" y="-1" relative="1" as="geometry">
            <mxPoint x="-10" y="-11" as="offset" />
          </mxGeometry>
        </mxCell>
        <mxCell id="VmrAAsjJuFen-UYQ8yC_-1" value="IDLE" style="ellipse;whiteSpace=wrap;html=1;aspect=fixed;" vertex="1" parent="1">
          <mxGeometry y="200" width="80" height="80" as="geometry" />
        </mxCell>
        <mxCell id="VmrAAsjJuFen-UYQ8yC_-14" style="edgeStyle=orthogonalEdgeStyle;rounded=0;orthogonalLoop=1;jettySize=auto;html=1;exitX=1;exitY=0.5;exitDx=0;exitDy=0;entryX=0;entryY=0.5;entryDx=0;entryDy=0;" edge="1" parent="1" source="VmrAAsjJuFen-UYQ8yC_-2" target="VmrAAsjJuFen-UYQ8yC_-3">
          <mxGeometry relative="1" as="geometry" />
        </mxCell>
        <mxCell id="VmrAAsjJuFen-UYQ8yC_-20" style="edgeStyle=orthogonalEdgeStyle;rounded=0;orthogonalLoop=1;jettySize=auto;html=1;exitX=0.5;exitY=1;exitDx=0;exitDy=0;entryX=0.5;entryY=0;entryDx=0;entryDy=0;fontSize=9;" edge="1" parent="1" source="VmrAAsjJuFen-UYQ8yC_-2" target="VmrAAsjJuFen-UYQ8yC_-5">
          <mxGeometry relative="1" as="geometry" />
        </mxCell>
        <mxCell id="VmrAAsjJuFen-UYQ8yC_-23" value="第二位匹配失败" style="edgeLabel;html=1;align=center;verticalAlign=middle;resizable=0;points=[];fontSize=9;" vertex="1" connectable="0" parent="VmrAAsjJuFen-UYQ8yC_-20">
          <mxGeometry x="-0.2457" y="2" relative="1" as="geometry">
            <mxPoint as="offset" />
          </mxGeometry>
        </mxCell>
        <mxCell id="VmrAAsjJuFen-UYQ8yC_-2" value="S1" style="ellipse;whiteSpace=wrap;html=1;aspect=fixed;" vertex="1" parent="1">
          <mxGeometry x="320" y="200" width="80" height="80" as="geometry" />
        </mxCell>
        <mxCell id="VmrAAsjJuFen-UYQ8yC_-15" style="edgeStyle=orthogonalEdgeStyle;rounded=0;orthogonalLoop=1;jettySize=auto;html=1;exitX=1;exitY=0.5;exitDx=0;exitDy=0;entryX=0;entryY=0.5;entryDx=0;entryDy=0;" edge="1" parent="1" source="VmrAAsjJuFen-UYQ8yC_-3" target="VmrAAsjJuFen-UYQ8yC_-9">
          <mxGeometry relative="1" as="geometry" />
        </mxCell>
        <mxCell id="VmrAAsjJuFen-UYQ8yC_-21" style="edgeStyle=orthogonalEdgeStyle;rounded=0;orthogonalLoop=1;jettySize=auto;html=1;exitX=0.5;exitY=1;exitDx=0;exitDy=0;entryX=0.5;entryY=0;entryDx=0;entryDy=0;fontSize=9;" edge="1" parent="1" source="VmrAAsjJuFen-UYQ8yC_-3" target="VmrAAsjJuFen-UYQ8yC_-6">
          <mxGeometry relative="1" as="geometry" />
        </mxCell>
        <mxCell id="VmrAAsjJuFen-UYQ8yC_-24" value="第三位匹配失败" style="edgeLabel;html=1;align=center;verticalAlign=middle;resizable=0;points=[];fontSize=9;" vertex="1" connectable="0" parent="VmrAAsjJuFen-UYQ8yC_-21">
          <mxGeometry x="-0.2629" y="-1" relative="1" as="geometry">
            <mxPoint as="offset" />
          </mxGeometry>
        </mxCell>
        <mxCell id="VmrAAsjJuFen-UYQ8yC_-3" value="S2" style="ellipse;whiteSpace=wrap;html=1;aspect=fixed;" vertex="1" parent="1">
          <mxGeometry x="480" y="200" width="80" height="80" as="geometry" />
        </mxCell>
        <mxCell id="VmrAAsjJuFen-UYQ8yC_-25" style="edgeStyle=orthogonalEdgeStyle;rounded=0;orthogonalLoop=1;jettySize=auto;html=1;exitX=1;exitY=0.5;exitDx=0;exitDy=0;entryX=0;entryY=0.5;entryDx=0;entryDy=0;fontSize=9;" edge="1" parent="1" source="VmrAAsjJuFen-UYQ8yC_-4" target="VmrAAsjJuFen-UYQ8yC_-5">
          <mxGeometry relative="1" as="geometry" />
        </mxCell>
        <mxCell id="VmrAAsjJuFen-UYQ8yC_-27" value="输入第二位" style="edgeLabel;html=1;align=center;verticalAlign=middle;resizable=0;points=[];fontSize=9;" vertex="1" connectable="0" parent="VmrAAsjJuFen-UYQ8yC_-25">
          <mxGeometry x="-0.2345" y="1" relative="1" as="geometry">
            <mxPoint x="10" y="-9" as="offset" />
          </mxGeometry>
        </mxCell>
        <mxCell id="VmrAAsjJuFen-UYQ8yC_-4" value="FAIL1" style="ellipse;whiteSpace=wrap;html=1;aspect=fixed;" vertex="1" parent="1">
          <mxGeometry x="160" y="360" width="80" height="80" as="geometry" />
        </mxCell>
        <mxCell id="VmrAAsjJuFen-UYQ8yC_-26" style="edgeStyle=orthogonalEdgeStyle;rounded=0;orthogonalLoop=1;jettySize=auto;html=1;exitX=1;exitY=0.5;exitDx=0;exitDy=0;entryX=0;entryY=0.5;entryDx=0;entryDy=0;fontSize=9;" edge="1" parent="1" source="VmrAAsjJuFen-UYQ8yC_-5" target="VmrAAsjJuFen-UYQ8yC_-6">
          <mxGeometry relative="1" as="geometry" />
        </mxCell>
        <mxCell id="VmrAAsjJuFen-UYQ8yC_-28" value="输入第三位" style="edgeLabel;html=1;align=center;verticalAlign=middle;resizable=0;points=[];fontSize=9;" vertex="1" connectable="0" parent="VmrAAsjJuFen-UYQ8yC_-26">
          <mxGeometry x="-0.3034" relative="1" as="geometry">
            <mxPoint x="12" y="-10" as="offset" />
          </mxGeometry>
        </mxCell>
        <mxCell id="VmrAAsjJuFen-UYQ8yC_-5" value="FAIL2" style="ellipse;whiteSpace=wrap;html=1;aspect=fixed;" vertex="1" parent="1">
          <mxGeometry x="320" y="360" width="80" height="80" as="geometry" />
        </mxCell>
        <mxCell id="VmrAAsjJuFen-UYQ8yC_-6" value="FAIL3" style="ellipse;whiteSpace=wrap;html=1;aspect=fixed;" vertex="1" parent="1">
          <mxGeometry x="480" y="360" width="80" height="80" as="geometry" />
        </mxCell>
        <mxCell id="VmrAAsjJuFen-UYQ8yC_-9" value="S3" style="ellipse;whiteSpace=wrap;html=1;aspect=fixed;" vertex="1" parent="1">
          <mxGeometry x="640" y="200" width="80" height="80" as="geometry" />
        </mxCell>
        <mxCell id="VmrAAsjJuFen-UYQ8yC_-13" style="edgeStyle=orthogonalEdgeStyle;rounded=0;orthogonalLoop=1;jettySize=auto;html=1;exitX=1;exitY=0.5;exitDx=0;exitDy=0;entryX=0;entryY=0.5;entryDx=0;entryDy=0;" edge="1" parent="1" source="VmrAAsjJuFen-UYQ8yC_-10" target="VmrAAsjJuFen-UYQ8yC_-2">
          <mxGeometry relative="1" as="geometry" />
        </mxCell>
        <mxCell id="VmrAAsjJuFen-UYQ8yC_-19" style="edgeStyle=orthogonalEdgeStyle;rounded=0;orthogonalLoop=1;jettySize=auto;html=1;exitX=0.5;exitY=1;exitDx=0;exitDy=0;entryX=0.5;entryY=0;entryDx=0;entryDy=0;fontSize=9;" edge="1" parent="1" source="VmrAAsjJuFen-UYQ8yC_-10" target="VmrAAsjJuFen-UYQ8yC_-4">
          <mxGeometry relative="1" as="geometry" />
        </mxCell>
        <mxCell id="VmrAAsjJuFen-UYQ8yC_-22" value="第一位匹配失败" style="edgeLabel;html=1;align=center;verticalAlign=middle;resizable=0;points=[];fontSize=9;" vertex="1" connectable="0" parent="VmrAAsjJuFen-UYQ8yC_-19">
          <mxGeometry x="-0.2457" y="1" relative="1" as="geometry">
            <mxPoint as="offset" />
          </mxGeometry>
        </mxCell>
        <mxCell id="VmrAAsjJuFen-UYQ8yC_-10" value="S0" style="ellipse;whiteSpace=wrap;html=1;aspect=fixed;" vertex="1" parent="1">
          <mxGeometry x="160" y="200" width="80" height="80" as="geometry" />
        </mxCell>
        <mxCell id="VmrAAsjJuFen-UYQ8yC_-16" value="&lt;font style=&quot;font-size: 9px;&quot;&gt;第一位匹配成功&lt;/font&gt;" style="text;html=1;align=center;verticalAlign=middle;resizable=0;points=[];autosize=1;strokeColor=none;fillColor=none;" vertex="1" parent="1">
          <mxGeometry x="240" y="210" width="90" height="30" as="geometry" />
        </mxCell>
        <mxCell id="VmrAAsjJuFen-UYQ8yC_-17" value="&lt;font style=&quot;font-size: 9px;&quot;&gt;第二位匹配成功&lt;/font&gt;" style="text;html=1;align=center;verticalAlign=middle;resizable=0;points=[];autosize=1;strokeColor=none;fillColor=none;" vertex="1" parent="1">
          <mxGeometry x="390" y="210" width="90" height="30" as="geometry" />
        </mxCell>
        <mxCell id="VmrAAsjJuFen-UYQ8yC_-18" value="&lt;font style=&quot;font-size: 9px;&quot;&gt;第三位匹配成功&lt;/font&gt;" style="text;html=1;align=center;verticalAlign=middle;resizable=0;points=[];autosize=1;strokeColor=none;fillColor=none;" vertex="1" parent="1">
          <mxGeometry x="550" y="210" width="90" height="30" as="geometry" />
        </mxCell>
      </root>
    </mxGraphModel>
  </diagram>
</mxfile>
